# xmcd
#
# Track frame offsets:
#	182
#	18242
#	34562
#	49600
#	64642
#	79070
#	96782
#	109072
#	126777
#	145572
#
# Disc length: 2108 seconds
#
# Revision: 0
# Processed by: cddbd v1.4PL0 Copyright (c) Steve Scherf et al.
# Submitted via: dBpowerAMP V4.0
#
DISCID=73083a0a
DTITLE=Leonardo Favio - Fuerza y Sentimiento
DYEAR=1900
DGENRE=Blues
TTITLE0=No vale la pena
TTITLE1=El porton de mario
TTITLE2=Eres mi mujer...mi esposa
TTITLE3=Si yo fuera tu amante
TTITLE4=Fue una noche de verano
TTITLE5=Desnudate, no des vuelta la cara
TTITLE6=De amor ya nadie muere
TTITLE7=Muchacha ojos de carbón
TTITLE8=No fui nadie
TTITLE9=Anny
EXTD=From: The Saint
EXTT0=
EXTT1=
EXTT2=
EXTT3=
EXTT4=
EXTT5=
EXTT6=
EXTT7=
EXTT8=
EXTT9=
PLAYORDER=
